# xmcd
#
# Track frame offsets: 
#        150
#        9231
#        21254
#        34665
#        46297
#        58800
#        74605
#        90247
#        101770
#        115776
#        132507
#        147305
#        159339
#
# Disc length: 2331 seconds
#
# Revision: 0
# Processed by: cddbd v1.5.2PL0 Copyright (c) Steve Scherf et al.
# Submitted via: ExactAudioCopy v0.95b3
#
DISCID=ab09190d
DTITLE=Wright Sister, The - On Wings of Bluegrass
DYEAR=2005
DGENRE=Bluegrass
TTITLE0=Black Jack
TTITLE1=The Lonesome Cry of the Whipporwill
TTITLE2=Live Beyond the Grave
TTITLE3=Crazy
TTITLE4=Sweet Megan Leigh
TTITLE5=Americans and Old Glory
TTITLE6=Bluegrass Dreams
TTITLE7=You Are My Flower
TTITLE8=High Lonewome Sound
TTITLE9=When The Angels Sing
TTITLE10=Life is Like a Railroad Track
TTITLE11=Broke Down in Wyoming
TTITLE12=A Living Prayer
EXTD=
EXTT0=
EXTT1=
EXTT2=
EXTT3=
EXTT4=
EXTT5=
EXTT6=
EXTT7=
EXTT8=
EXTT9=
EXTT10=
EXTT11=
EXTT12=
PLAYORDER=
